<?xml version="1.0" standalone="no"?>
<svg xmlns="http://www.w3.org/2000/svg" version="1.1" width="396" height="396">
	<!-- Created with https://api.qrserver.com (QR Code API, see goQR.me/api for information) -->
	<title>QR Code</title>
	<desc>https://extraspacescam.com/</desc>
	<rect style="fill:rgb(255, 255, 255);fill-opacity:1" x="0" y="0" width="396" height="396" />
	<g id="elements">
		<path style="fill:rgb(0, 0, 0)" d="M 0,0 l 12,0 0,12 -12,0 z M 12,0 l 12,0 0,12 -12,0 z M 24,0 l 12,0 0,12 -12,0 z M 36,0 l 12,0 0,12 -12,0 z M 48,0 l 12,0 0,12 -12,0 z M 60,0 l 12,0 0,12 -12,0 z M 72,0 l 12,0 0,12 -12,0 z M 96,0 l 12,0 0,12 -12,0 z M 108,0 l 12,0 0,12 -12,0 z M 120,0 l 12,0 0,12 -12,0 z M 156,0 l 12,0 0,12 -12,0 z M 168,0 l 12,0 0,12 -12,0 z M 252,0 l 12,0 0,12 -12,0 z M 276,0 l 12,0 0,12 -12,0 z M 288,0 l 12,0 0,12 -12,0 z M 312,0 l 12,0 0,12 -12,0 z M 324,0 l 12,0 0,12 -12,0 z M 336,0 l 12,0 0,12 -12,0 z M 348,0 l 12,0 0,12 -12,0 z M 360,0 l 12,0 0,12 -12,0 z M 372,0 l 12,0 0,12 -12,0 z M 384,0 l 12,0 0,12 -12,0 z M 0,12 l 12,0 0,12 -12,0 z M 72,12 l 12,0 0,12 -12,0 z M 96,12 l 12,0 0,12 -12,0 z M 120,12 l 12,0 0,12 -12,0 z M 132,12 l 12,0 0,12 -12,0 z M 156,12 l 12,0 0,12 -12,0 z M 192,12 l 12,0 0,12 -12,0 z M 228,12 l 12,0 0,12 -12,0 z M 252,12 l 12,0 0,12 -12,0 z M 288,12 l 12,0 0,12 -12,0 z M 312,12 l 12,0 0,12 -12,0 z M 384,12 l 12,0 0,12 -12,0 z M 0,24 l 12,0 0,12 -12,0 z M 24,24 l 12,0 0,12 -12,0 z M 36,24 l 12,0 0,12 -12,0 z M 48,24 l 12,0 0,12 -12,0 z M 72,24 l 12,0 0,12 -12,0 z M 96,24 l 12,0 0,12 -12,0 z M 120,24 l 12,0 0,12 -12,0 z M 132,24 l 12,0 0,12 -12,0 z M 144,24 l 12,0 0,12 -12,0 z M 168,24 l 12,0 0,12 -12,0 z M 180,24 l 12,0 0,12 -12,0 z M 192,24 l 12,0 0,12 -12,0 z M 204,24 l 12,0 0,12 -12,0 z M 252,24 l 12,0 0,12 -12,0 z M 276,24 l 12,0 0,12 -12,0 z M 288,24 l 12,0 0,12 -12,0 z M 312,24 l 12,0 0,12 -12,0 z M 336,24 l 12,0 0,12 -12,0 z M 348,24 l 12,0 0,12 -12,0 z M 360,24 l 12,0 0,12 -12,0 z M 384,24 l 12,0 0,12 -12,0 z M 0,36 l 12,0 0,12 -12,0 z M 24,36 l 12,0 0,12 -12,0 z M 36,36 l 12,0 0,12 -12,0 z M 48,36 l 12,0 0,12 -12,0 z M 72,36 l 12,0 0,12 -12,0 z M 156,36 l 12,0 0,12 -12,0 z M 204,36 l 12,0 0,12 -12,0 z M 240,36 l 12,0 0,12 -12,0 z M 264,36 l 12,0 0,12 -12,0 z M 276,36 l 12,0 0,12 -12,0 z M 288,36 l 12,0 0,12 -12,0 z M 312,36 l 12,0 0,12 -12,0 z M 336,36 l 12,0 0,12 -12,0 z M 348,36 l 12,0 0,12 -12,0 z M 360,36 l 12,0 0,12 -12,0 z M 384,36 l 12,0 0,12 -12,0 z M 0,48 l 12,0 0,12 -12,0 z M 24,48 l 12,0 0,12 -12,0 z M 36,48 l 12,0 0,12 -12,0 z M 48,48 l 12,0 0,12 -12,0 z M 72,48 l 12,0 0,12 -12,0 z M 132,48 l 12,0 0,12 -12,0 z M 144,48 l 12,0 0,12 -12,0 z M 156,48 l 12,0 0,12 -12,0 z M 180,48 l 12,0 0,12 -12,0 z M 192,48 l 12,0 0,12 -12,0 z M 252,48 l 12,0 0,12 -12,0 z M 312,48 l 12,0 0,12 -12,0 z M 336,48 l 12,0 0,12 -12,0 z M 348,48 l 12,0 0,12 -12,0 z M 360,48 l 12,0 0,12 -12,0 z M 384,48 l 12,0 0,12 -12,0 z M 0,60 l 12,0 0,12 -12,0 z M 72,60 l 12,0 0,12 -12,0 z M 96,60 l 12,0 0,12 -12,0 z M 120,60 l 12,0 0,12 -12,0 z M 144,60 l 12,0 0,12 -12,0 z M 168,60 l 12,0 0,12 -12,0 z M 204,60 l 12,0 0,12 -12,0 z M 216,60 l 12,0 0,12 -12,0 z M 276,60 l 12,0 0,12 -12,0 z M 288,60 l 12,0 0,12 -12,0 z M 312,60 l 12,0 0,12 -12,0 z M 384,60 l 12,0 0,12 -12,0 z M 0,72 l 12,0 0,12 -12,0 z M 12,72 l 12,0 0,12 -12,0 z M 24,72 l 12,0 0,12 -12,0 z M 36,72 l 12,0 0,12 -12,0 z M 48,72 l 12,0 0,12 -12,0 z M 60,72 l 12,0 0,12 -12,0 z M 72,72 l 12,0 0,12 -12,0 z M 96,72 l 12,0 0,12 -12,0 z M 120,72 l 12,0 0,12 -12,0 z M 144,72 l 12,0 0,12 -12,0 z M 168,72 l 12,0 0,12 -12,0 z M 192,72 l 12,0 0,12 -12,0 z M 216,72 l 12,0 0,12 -12,0 z M 240,72 l 12,0 0,12 -12,0 z M 264,72 l 12,0 0,12 -12,0 z M 288,72 l 12,0 0,12 -12,0 z M 312,72 l 12,0 0,12 -12,0 z M 324,72 l 12,0 0,12 -12,0 z M 336,72 l 12,0 0,12 -12,0 z M 348,72 l 12,0 0,12 -12,0 z M 360,72 l 12,0 0,12 -12,0 z M 372,72 l 12,0 0,12 -12,0 z M 384,72 l 12,0 0,12 -12,0 z M 96,84 l 12,0 0,12 -12,0 z M 108,84 l 12,0 0,12 -12,0 z M 132,84 l 12,0 0,12 -12,0 z M 144,84 l 12,0 0,12 -12,0 z M 168,84 l 12,0 0,12 -12,0 z M 180,84 l 12,0 0,12 -12,0 z M 216,84 l 12,0 0,12 -12,0 z M 240,84 l 12,0 0,12 -12,0 z M 252,84 l 12,0 0,12 -12,0 z M 264,84 l 12,0 0,12 -12,0 z M 276,84 l 12,0 0,12 -12,0 z M 24,96 l 12,0 0,12 -12,0 z M 36,96 l 12,0 0,12 -12,0 z M 48,96 l 12,0 0,12 -12,0 z M 72,96 l 12,0 0,12 -12,0 z M 96,96 l 12,0 0,12 -12,0 z M 132,96 l 12,0 0,12 -12,0 z M 168,96 l 12,0 0,12 -12,0 z M 180,96 l 12,0 0,12 -12,0 z M 228,96 l 12,0 0,12 -12,0 z M 240,96 l 12,0 0,12 -12,0 z M 264,96 l 12,0 0,12 -12,0 z M 276,96 l 12,0 0,12 -12,0 z M 288,96 l 12,0 0,12 -12,0 z M 300,96 l 12,0 0,12 -12,0 z M 312,96 l 12,0 0,12 -12,0 z M 324,96 l 12,0 0,12 -12,0 z M 360,96 l 12,0 0,12 -12,0 z M 372,96 l 12,0 0,12 -12,0 z M 384,96 l 12,0 0,12 -12,0 z M 0,108 l 12,0 0,12 -12,0 z M 12,108 l 12,0 0,12 -12,0 z M 24,108 l 12,0 0,12 -12,0 z M 48,108 l 12,0 0,12 -12,0 z M 60,108 l 12,0 0,12 -12,0 z M 120,108 l 12,0 0,12 -12,0 z M 168,108 l 12,0 0,12 -12,0 z M 180,108 l 12,0 0,12 -12,0 z M 204,108 l 12,0 0,12 -12,0 z M 252,108 l 12,0 0,12 -12,0 z M 276,108 l 12,0 0,12 -12,0 z M 300,108 l 12,0 0,12 -12,0 z M 312,108 l 12,0 0,12 -12,0 z M 348,108 l 12,0 0,12 -12,0 z M 360,108 l 12,0 0,12 -12,0 z M 372,108 l 12,0 0,12 -12,0 z M 384,108 l 12,0 0,12 -12,0 z M 24,120 l 12,0 0,12 -12,0 z M 36,120 l 12,0 0,12 -12,0 z M 48,120 l 12,0 0,12 -12,0 z M 72,120 l 12,0 0,12 -12,0 z M 108,120 l 12,0 0,12 -12,0 z M 156,120 l 12,0 0,12 -12,0 z M 168,120 l 12,0 0,12 -12,0 z M 180,120 l 12,0 0,12 -12,0 z M 204,120 l 12,0 0,12 -12,0 z M 228,120 l 12,0 0,12 -12,0 z M 240,120 l 12,0 0,12 -12,0 z M 252,120 l 12,0 0,12 -12,0 z M 288,120 l 12,0 0,12 -12,0 z M 324,120 l 12,0 0,12 -12,0 z M 348,120 l 12,0 0,12 -12,0 z M 360,120 l 12,0 0,12 -12,0 z M 372,120 l 12,0 0,12 -12,0 z M 24,132 l 12,0 0,12 -12,0 z M 48,132 l 12,0 0,12 -12,0 z M 144,132 l 12,0 0,12 -12,0 z M 156,132 l 12,0 0,12 -12,0 z M 204,132 l 12,0 0,12 -12,0 z M 216,132 l 12,0 0,12 -12,0 z M 240,132 l 12,0 0,12 -12,0 z M 252,132 l 12,0 0,12 -12,0 z M 264,132 l 12,0 0,12 -12,0 z M 276,132 l 12,0 0,12 -12,0 z M 312,132 l 12,0 0,12 -12,0 z M 348,132 l 12,0 0,12 -12,0 z M 360,132 l 12,0 0,12 -12,0 z M 372,132 l 12,0 0,12 -12,0 z M 24,144 l 12,0 0,12 -12,0 z M 60,144 l 12,0 0,12 -12,0 z M 72,144 l 12,0 0,12 -12,0 z M 84,144 l 12,0 0,12 -12,0 z M 108,144 l 12,0 0,12 -12,0 z M 132,144 l 12,0 0,12 -12,0 z M 144,144 l 12,0 0,12 -12,0 z M 156,144 l 12,0 0,12 -12,0 z M 168,144 l 12,0 0,12 -12,0 z M 180,144 l 12,0 0,12 -12,0 z M 192,144 l 12,0 0,12 -12,0 z M 204,144 l 12,0 0,12 -12,0 z M 216,144 l 12,0 0,12 -12,0 z M 252,144 l 12,0 0,12 -12,0 z M 276,144 l 12,0 0,12 -12,0 z M 300,144 l 12,0 0,12 -12,0 z M 348,144 l 12,0 0,12 -12,0 z M 372,144 l 12,0 0,12 -12,0 z M 0,156 l 12,0 0,12 -12,0 z M 36,156 l 12,0 0,12 -12,0 z M 84,156 l 12,0 0,12 -12,0 z M 120,156 l 12,0 0,12 -12,0 z M 132,156 l 12,0 0,12 -12,0 z M 216,156 l 12,0 0,12 -12,0 z M 240,156 l 12,0 0,12 -12,0 z M 264,156 l 12,0 0,12 -12,0 z M 276,156 l 12,0 0,12 -12,0 z M 312,156 l 12,0 0,12 -12,0 z M 324,156 l 12,0 0,12 -12,0 z M 348,156 l 12,0 0,12 -12,0 z M 384,156 l 12,0 0,12 -12,0 z M 0,168 l 12,0 0,12 -12,0 z M 36,168 l 12,0 0,12 -12,0 z M 48,168 l 12,0 0,12 -12,0 z M 60,168 l 12,0 0,12 -12,0 z M 72,168 l 12,0 0,12 -12,0 z M 132,168 l 12,0 0,12 -12,0 z M 144,168 l 12,0 0,12 -12,0 z M 168,168 l 12,0 0,12 -12,0 z M 180,168 l 12,0 0,12 -12,0 z M 192,168 l 12,0 0,12 -12,0 z M 216,168 l 12,0 0,12 -12,0 z M 240,168 l 12,0 0,12 -12,0 z M 264,168 l 12,0 0,12 -12,0 z M 348,168 l 12,0 0,12 -12,0 z M 372,168 l 12,0 0,12 -12,0 z M 24,180 l 12,0 0,12 -12,0 z M 84,180 l 12,0 0,12 -12,0 z M 96,180 l 12,0 0,12 -12,0 z M 120,180 l 12,0 0,12 -12,0 z M 168,180 l 12,0 0,12 -12,0 z M 192,180 l 12,0 0,12 -12,0 z M 204,180 l 12,0 0,12 -12,0 z M 216,180 l 12,0 0,12 -12,0 z M 228,180 l 12,0 0,12 -12,0 z M 252,180 l 12,0 0,12 -12,0 z M 264,180 l 12,0 0,12 -12,0 z M 276,180 l 12,0 0,12 -12,0 z M 288,180 l 12,0 0,12 -12,0 z M 300,180 l 12,0 0,12 -12,0 z M 324,180 l 12,0 0,12 -12,0 z M 360,180 l 12,0 0,12 -12,0 z M 372,180 l 12,0 0,12 -12,0 z M 384,180 l 12,0 0,12 -12,0 z M 0,192 l 12,0 0,12 -12,0 z M 48,192 l 12,0 0,12 -12,0 z M 60,192 l 12,0 0,12 -12,0 z M 72,192 l 12,0 0,12 -12,0 z M 96,192 l 12,0 0,12 -12,0 z M 108,192 l 12,0 0,12 -12,0 z M 120,192 l 12,0 0,12 -12,0 z M 144,192 l 12,0 0,12 -12,0 z M 168,192 l 12,0 0,12 -12,0 z M 180,192 l 12,0 0,12 -12,0 z M 204,192 l 12,0 0,12 -12,0 z M 228,192 l 12,0 0,12 -12,0 z M 240,192 l 12,0 0,12 -12,0 z M 300,192 l 12,0 0,12 -12,0 z M 324,192 l 12,0 0,12 -12,0 z M 336,192 l 12,0 0,12 -12,0 z M 360,192 l 12,0 0,12 -12,0 z M 384,192 l 12,0 0,12 -12,0 z M 0,204 l 12,0 0,12 -12,0 z M 24,204 l 12,0 0,12 -12,0 z M 48,204 l 12,0 0,12 -12,0 z M 96,204 l 12,0 0,12 -12,0 z M 132,204 l 12,0 0,12 -12,0 z M 144,204 l 12,0 0,12 -12,0 z M 156,204 l 12,0 0,12 -12,0 z M 168,204 l 12,0 0,12 -12,0 z M 180,204 l 12,0 0,12 -12,0 z M 216,204 l 12,0 0,12 -12,0 z M 240,204 l 12,0 0,12 -12,0 z M 252,204 l 12,0 0,12 -12,0 z M 276,204 l 12,0 0,12 -12,0 z M 288,204 l 12,0 0,12 -12,0 z M 312,204 l 12,0 0,12 -12,0 z M 384,204 l 12,0 0,12 -12,0 z M 0,216 l 12,0 0,12 -12,0 z M 24,216 l 12,0 0,12 -12,0 z M 48,216 l 12,0 0,12 -12,0 z M 60,216 l 12,0 0,12 -12,0 z M 72,216 l 12,0 0,12 -12,0 z M 84,216 l 12,0 0,12 -12,0 z M 96,216 l 12,0 0,12 -12,0 z M 108,216 l 12,0 0,12 -12,0 z M 132,216 l 12,0 0,12 -12,0 z M 180,216 l 12,0 0,12 -12,0 z M 192,216 l 12,0 0,12 -12,0 z M 228,216 l 12,0 0,12 -12,0 z M 240,216 l 12,0 0,12 -12,0 z M 252,216 l 12,0 0,12 -12,0 z M 300,216 l 12,0 0,12 -12,0 z M 312,216 l 12,0 0,12 -12,0 z M 336,216 l 12,0 0,12 -12,0 z M 360,216 l 12,0 0,12 -12,0 z M 0,228 l 12,0 0,12 -12,0 z M 36,228 l 12,0 0,12 -12,0 z M 48,228 l 12,0 0,12 -12,0 z M 108,228 l 12,0 0,12 -12,0 z M 144,228 l 12,0 0,12 -12,0 z M 156,228 l 12,0 0,12 -12,0 z M 180,228 l 12,0 0,12 -12,0 z M 192,228 l 12,0 0,12 -12,0 z M 216,228 l 12,0 0,12 -12,0 z M 252,228 l 12,0 0,12 -12,0 z M 264,228 l 12,0 0,12 -12,0 z M 276,228 l 12,0 0,12 -12,0 z M 288,228 l 12,0 0,12 -12,0 z M 312,228 l 12,0 0,12 -12,0 z M 324,228 l 12,0 0,12 -12,0 z M 348,228 l 12,0 0,12 -12,0 z M 360,228 l 12,0 0,12 -12,0 z M 372,228 l 12,0 0,12 -12,0 z M 12,240 l 12,0 0,12 -12,0 z M 24,240 l 12,0 0,12 -12,0 z M 36,240 l 12,0 0,12 -12,0 z M 60,240 l 12,0 0,12 -12,0 z M 72,240 l 12,0 0,12 -12,0 z M 84,240 l 12,0 0,12 -12,0 z M 108,240 l 12,0 0,12 -12,0 z M 144,240 l 12,0 0,12 -12,0 z M 180,240 l 12,0 0,12 -12,0 z M 204,240 l 12,0 0,12 -12,0 z M 228,240 l 12,0 0,12 -12,0 z M 240,240 l 12,0 0,12 -12,0 z M 264,240 l 12,0 0,12 -12,0 z M 300,240 l 12,0 0,12 -12,0 z M 312,240 l 12,0 0,12 -12,0 z M 336,240 l 12,0 0,12 -12,0 z M 348,240 l 12,0 0,12 -12,0 z M 372,240 l 12,0 0,12 -12,0 z M 384,240 l 12,0 0,12 -12,0 z M 0,252 l 12,0 0,12 -12,0 z M 12,252 l 12,0 0,12 -12,0 z M 36,252 l 12,0 0,12 -12,0 z M 48,252 l 12,0 0,12 -12,0 z M 60,252 l 12,0 0,12 -12,0 z M 96,252 l 12,0 0,12 -12,0 z M 192,252 l 12,0 0,12 -12,0 z M 204,252 l 12,0 0,12 -12,0 z M 228,252 l 12,0 0,12 -12,0 z M 240,252 l 12,0 0,12 -12,0 z M 288,252 l 12,0 0,12 -12,0 z M 384,252 l 12,0 0,12 -12,0 z M 0,264 l 12,0 0,12 -12,0 z M 36,264 l 12,0 0,12 -12,0 z M 72,264 l 12,0 0,12 -12,0 z M 120,264 l 12,0 0,12 -12,0 z M 132,264 l 12,0 0,12 -12,0 z M 168,264 l 12,0 0,12 -12,0 z M 180,264 l 12,0 0,12 -12,0 z M 192,264 l 12,0 0,12 -12,0 z M 204,264 l 12,0 0,12 -12,0 z M 216,264 l 12,0 0,12 -12,0 z M 264,264 l 12,0 0,12 -12,0 z M 324,264 l 12,0 0,12 -12,0 z M 360,264 l 12,0 0,12 -12,0 z M 372,264 l 12,0 0,12 -12,0 z M 0,276 l 12,0 0,12 -12,0 z M 36,276 l 12,0 0,12 -12,0 z M 60,276 l 12,0 0,12 -12,0 z M 96,276 l 12,0 0,12 -12,0 z M 108,276 l 12,0 0,12 -12,0 z M 156,276 l 12,0 0,12 -12,0 z M 216,276 l 12,0 0,12 -12,0 z M 252,276 l 12,0 0,12 -12,0 z M 264,276 l 12,0 0,12 -12,0 z M 288,276 l 12,0 0,12 -12,0 z M 348,276 l 12,0 0,12 -12,0 z M 360,276 l 12,0 0,12 -12,0 z M 372,276 l 12,0 0,12 -12,0 z M 384,276 l 12,0 0,12 -12,0 z M 0,288 l 12,0 0,12 -12,0 z M 24,288 l 12,0 0,12 -12,0 z M 48,288 l 12,0 0,12 -12,0 z M 72,288 l 12,0 0,12 -12,0 z M 120,288 l 12,0 0,12 -12,0 z M 144,288 l 12,0 0,12 -12,0 z M 192,288 l 12,0 0,12 -12,0 z M 204,288 l 12,0 0,12 -12,0 z M 216,288 l 12,0 0,12 -12,0 z M 228,288 l 12,0 0,12 -12,0 z M 240,288 l 12,0 0,12 -12,0 z M 264,288 l 12,0 0,12 -12,0 z M 288,288 l 12,0 0,12 -12,0 z M 300,288 l 12,0 0,12 -12,0 z M 312,288 l 12,0 0,12 -12,0 z M 324,288 l 12,0 0,12 -12,0 z M 336,288 l 12,0 0,12 -12,0 z M 348,288 l 12,0 0,12 -12,0 z M 96,300 l 12,0 0,12 -12,0 z M 108,300 l 12,0 0,12 -12,0 z M 120,300 l 12,0 0,12 -12,0 z M 132,300 l 12,0 0,12 -12,0 z M 168,300 l 12,0 0,12 -12,0 z M 180,300 l 12,0 0,12 -12,0 z M 192,300 l 12,0 0,12 -12,0 z M 204,300 l 12,0 0,12 -12,0 z M 216,300 l 12,0 0,12 -12,0 z M 228,300 l 12,0 0,12 -12,0 z M 240,300 l 12,0 0,12 -12,0 z M 288,300 l 12,0 0,12 -12,0 z M 336,300 l 12,0 0,12 -12,0 z M 360,300 l 12,0 0,12 -12,0 z M 384,300 l 12,0 0,12 -12,0 z M 0,312 l 12,0 0,12 -12,0 z M 12,312 l 12,0 0,12 -12,0 z M 24,312 l 12,0 0,12 -12,0 z M 36,312 l 12,0 0,12 -12,0 z M 48,312 l 12,0 0,12 -12,0 z M 60,312 l 12,0 0,12 -12,0 z M 72,312 l 12,0 0,12 -12,0 z M 108,312 l 12,0 0,12 -12,0 z M 120,312 l 12,0 0,12 -12,0 z M 132,312 l 12,0 0,12 -12,0 z M 192,312 l 12,0 0,12 -12,0 z M 216,312 l 12,0 0,12 -12,0 z M 228,312 l 12,0 0,12 -12,0 z M 240,312 l 12,0 0,12 -12,0 z M 264,312 l 12,0 0,12 -12,0 z M 276,312 l 12,0 0,12 -12,0 z M 288,312 l 12,0 0,12 -12,0 z M 312,312 l 12,0 0,12 -12,0 z M 336,312 l 12,0 0,12 -12,0 z M 348,312 l 12,0 0,12 -12,0 z M 372,312 l 12,0 0,12 -12,0 z M 0,324 l 12,0 0,12 -12,0 z M 72,324 l 12,0 0,12 -12,0 z M 108,324 l 12,0 0,12 -12,0 z M 120,324 l 12,0 0,12 -12,0 z M 132,324 l 12,0 0,12 -12,0 z M 144,324 l 12,0 0,12 -12,0 z M 156,324 l 12,0 0,12 -12,0 z M 180,324 l 12,0 0,12 -12,0 z M 204,324 l 12,0 0,12 -12,0 z M 216,324 l 12,0 0,12 -12,0 z M 228,324 l 12,0 0,12 -12,0 z M 288,324 l 12,0 0,12 -12,0 z M 336,324 l 12,0 0,12 -12,0 z M 348,324 l 12,0 0,12 -12,0 z M 360,324 l 12,0 0,12 -12,0 z M 372,324 l 12,0 0,12 -12,0 z M 384,324 l 12,0 0,12 -12,0 z M 0,336 l 12,0 0,12 -12,0 z M 24,336 l 12,0 0,12 -12,0 z M 36,336 l 12,0 0,12 -12,0 z M 48,336 l 12,0 0,12 -12,0 z M 72,336 l 12,0 0,12 -12,0 z M 96,336 l 12,0 0,12 -12,0 z M 108,336 l 12,0 0,12 -12,0 z M 120,336 l 12,0 0,12 -12,0 z M 156,336 l 12,0 0,12 -12,0 z M 168,336 l 12,0 0,12 -12,0 z M 180,336 l 12,0 0,12 -12,0 z M 204,336 l 12,0 0,12 -12,0 z M 240,336 l 12,0 0,12 -12,0 z M 252,336 l 12,0 0,12 -12,0 z M 264,336 l 12,0 0,12 -12,0 z M 288,336 l 12,0 0,12 -12,0 z M 300,336 l 12,0 0,12 -12,0 z M 312,336 l 12,0 0,12 -12,0 z M 324,336 l 12,0 0,12 -12,0 z M 336,336 l 12,0 0,12 -12,0 z M 372,336 l 12,0 0,12 -12,0 z M 384,336 l 12,0 0,12 -12,0 z M 0,348 l 12,0 0,12 -12,0 z M 24,348 l 12,0 0,12 -12,0 z M 36,348 l 12,0 0,12 -12,0 z M 48,348 l 12,0 0,12 -12,0 z M 72,348 l 12,0 0,12 -12,0 z M 96,348 l 12,0 0,12 -12,0 z M 120,348 l 12,0 0,12 -12,0 z M 144,348 l 12,0 0,12 -12,0 z M 192,348 l 12,0 0,12 -12,0 z M 228,348 l 12,0 0,12 -12,0 z M 276,348 l 12,0 0,12 -12,0 z M 288,348 l 12,0 0,12 -12,0 z M 300,348 l 12,0 0,12 -12,0 z M 336,348 l 12,0 0,12 -12,0 z M 348,348 l 12,0 0,12 -12,0 z M 372,348 l 12,0 0,12 -12,0 z M 0,360 l 12,0 0,12 -12,0 z M 24,360 l 12,0 0,12 -12,0 z M 36,360 l 12,0 0,12 -12,0 z M 48,360 l 12,0 0,12 -12,0 z M 72,360 l 12,0 0,12 -12,0 z M 96,360 l 12,0 0,12 -12,0 z M 156,360 l 12,0 0,12 -12,0 z M 180,360 l 12,0 0,12 -12,0 z M 240,360 l 12,0 0,12 -12,0 z M 264,360 l 12,0 0,12 -12,0 z M 276,360 l 12,0 0,12 -12,0 z M 300,360 l 12,0 0,12 -12,0 z M 312,360 l 12,0 0,12 -12,0 z M 0,372 l 12,0 0,12 -12,0 z M 72,372 l 12,0 0,12 -12,0 z M 180,372 l 12,0 0,12 -12,0 z M 192,372 l 12,0 0,12 -12,0 z M 204,372 l 12,0 0,12 -12,0 z M 216,372 l 12,0 0,12 -12,0 z M 228,372 l 12,0 0,12 -12,0 z M 240,372 l 12,0 0,12 -12,0 z M 252,372 l 12,0 0,12 -12,0 z M 264,372 l 12,0 0,12 -12,0 z M 276,372 l 12,0 0,12 -12,0 z M 324,372 l 12,0 0,12 -12,0 z M 348,372 l 12,0 0,12 -12,0 z M 0,384 l 12,0 0,12 -12,0 z M 12,384 l 12,0 0,12 -12,0 z M 24,384 l 12,0 0,12 -12,0 z M 36,384 l 12,0 0,12 -12,0 z M 48,384 l 12,0 0,12 -12,0 z M 60,384 l 12,0 0,12 -12,0 z M 72,384 l 12,0 0,12 -12,0 z M 108,384 l 12,0 0,12 -12,0 z M 132,384 l 12,0 0,12 -12,0 z M 144,384 l 12,0 0,12 -12,0 z M 168,384 l 12,0 0,12 -12,0 z M 180,384 l 12,0 0,12 -12,0 z M 192,384 l 12,0 0,12 -12,0 z M 228,384 l 12,0 0,12 -12,0 z M 240,384 l 12,0 0,12 -12,0 z M 264,384 l 12,0 0,12 -12,0 z M 276,384 l 12,0 0,12 -12,0 z M 288,384 l 12,0 0,12 -12,0 z M 300,384 l 12,0 0,12 -12,0 z M 360,384 l 12,0 0,12 -12,0 z M 372,384 l 12,0 0,12 -12,0 z " />
	</g>
</svg>
